<?xml version="1.0" encoding="utf-8"?>
<!-- Generator: Adobe Illustrator 16.0.0, SVG Export Plug-In . SVG Version: 6.00 Build 0)  -->
<!DOCTYPE svg PUBLIC "-//W3C//DTD SVG 1.1//EN" "http://www.w3.org/Graphics/SVG/1.1/DTD/svg11.dtd">
<svg version="1.1" id="Layer_1" xmlns="http://www.w3.org/2000/svg" xmlns:xlink="http://www.w3.org/1999/xlink" x="0px" y="0px"
	 width="510.236px" height="226.771px" viewBox="0 0 510.236 226.771" enable-background="new 0 0 510.236 226.771"
	 xml:space="preserve">
<g>
	<g>
		<g>
			<path fill="#62A9DA" d="M427.629,108.828c-0.324,0-0.508,0.138-0.508,0.415c0,2.949-5.062,13.536-8.68,13.539
				c-1.033-0.281-1.623-1.542-1.623-2.857c0-5.955,8.42-18.167,8.42-23.25c0-6.167-5.08-7.578-7.73-7.578
				c-2.305,0-8.195,6.232-13.258,13.615c0.559-1.645,0.971-3.191,1.115-4.5c0.855-7.636-5.078-9.115-7.729-9.115
				c-2.17,0-7.516,5.522-12.359,12.326c0.352-1.172,0.605-2.271,0.713-3.241c0.855-7.636-5.977-9.786-7.912-10.085
				c-0.072-0.011-0.133-0.015-0.186-0.016v-0.002c-0.004,0-0.008,0.001-0.012,0.001c-0.01,0-0.016,0.001-0.023,0.001
				c-3.174,0.02-4.662,2.663-4.662,3.89c0,1.232,0.135,1.365,1.002,1.365c0.596,0,0.477-3.635,3.236-3.635
				c0.52,0,0.932,0.446,1.146,2.27c0,0,0.01-0.003,0.01-0.004c-0.004,0.174-0.016,0.353-0.035,0.539
				c-0.889,7.953-5.973,15.464-6.82,23.03c-0.404,3.614,1.434,6.528,3.873,9.03c1.141,1.17,2.758,0.881,2.504-0.733
				c-0.166-1.043-0.189-2.045-0.113-3.271c2.104-10.424,15.27-28.152,18.568-28.152c0.857,0,1.197,0.325,1.248,0.934
				c-1.125,7.653-5.887,14.913-6.705,22.222c-0.402,3.613,1.434,6.527,3.873,9.029c1.143,1.17,2.84,0.797,2.586-0.816
				c-0.014-0.088-0.023-0.174-0.037-0.26c0.012-9.739,15.318-31.109,18.908-31.109c0.848,0,1.189,0.321,1.242,0.919
				c-1.174,7.622-6.699,14.369-6.699,22.237c0,2.396,0.631,4.463,1.754,6.313c-0.004,0-0.006-0.001-0.01,0
				c0.508,0.829,1.021,1.606,1.676,2.216c0.15,0.168,0.293,0.338,0.453,0.5c0.123,0.127,0.309,0.18,0.523,0.193
				c0.6,0.312,1.305,0.506,2.195,0.506c5.605,0,11.787-6.722,11.787-12.482C429.362,110.601,428.551,108.828,427.629,108.828"/>
		</g>
		<g>
			<path fill="#62A9DA" d="M387.26,85.022c5.16-0.34,10.463,0.147,15.717,0.673c5.008,0.638,10.176,1.13,13.764,0.894
				c10.359-0.682,11.346-6.834,11.072-8.512c-0.336-2.067-1.49,0.933-5.701,1.21c-5.16,0.339-10.463-0.147-15.715-0.673
				c-5.01-0.638-10.123-1.495-13.711-1.259c-10.359,0.682-11.4,7.199-11.127,8.877C381.895,88.298,383.049,85.299,387.26,85.022"/>
		</g>
		<g>
			<path fill="#62A9DA" d="M363.514,88.359c-3.031,0-7.951,5.769-12.211,11.706c0.111-0.58,0.182-1.098,0.182-1.507
				c0-7.684-6.027-10.697-7.986-10.697c-2.41,0,0.754,1.808,0.754,3.917c0,2.975-1.666,8.44-4.041,14.903
				c-2.645,5.613-6.822,12.577-12.42,14.892c-0.713-1.653-0.443-4.135-0.443-5.007c0-19.179,20.391-44.188,20.391-46.619
				c0-2.329-2.975-6.011-6.074-6.318c-0.066-0.014-0.131-0.03-0.205-0.03c-0.045,0-0.088,0.005-0.131,0.005
				c-0.025,0-0.049-0.005-0.072-0.005c-0.008,0-0.021,0.009-0.029,0.009c-11.336,0.203-21.094,15.157-29.027,29.812
				c-8.139,1.63-10.783,4.533-10.783,5.854c0,1.891,1.35,2.837,1.891,2.837c0.303,0,1.758-2.002,6.273-3.757
				c-6.416,12.282-11.486,23.103-15.057,23.103c-1.555,0-3.059-1.269-3.059-5.186c0-10.805,6.346-12.366,6.346-13.329
				c0-3.242-6.008-4.385-7.225-4.385c-1.781,0-3.75,2.385-5.225,5.157c-0.002-0.002-0.002-0.003-0.004-0.004
				c-0.006,0.015-0.012,0.03-0.018,0.045c-0.613,1.158-1.143,2.377-1.531,3.522c-2.533,5.042-6.039,8.568-11.314,11.521
				c-0.57,0.273-1.162,0.539-1.748,0.807c0.062-0.129,0.137-0.247,0.221-0.35c2.406-5.645,4.404-9.673,6.26-14.569
				c1.535-3.462,2.301-5.873,2.301-8.015c0-5.252-7.746-10.226-8.484-10.226c-0.365,0-0.344,0.027-0.344,0.223
				c0,0.195,1.104,0.081,1.104,3.987c-0.096,2.072-1.098,5.308-2.332,8.586c-2.336,4.749-9.137,17.138-17.988,20.396
				c-0.105-0.395-0.072-0.787-0.072-0.988c0-3.439,8.633-17.198,8.633-22.864c0-4.485-5.336-9.513-9.141-9.513
				c-0.766,0,0.947,0.481,0.947,4.388c0,1.796-0.418,3.774-1.045,5.82c-4.479,10.914-15.215,23.353-23.885,23.353
				c-1.152,0-1.863-4.38-1.863-6.69c0-17.001,12.932-43.451,20.377-43.451c1.205,0,2.902,0.412,2.902,2.663
				c0,4.5-3.188,4.248-3.188,5.112c0,1.247,1.123,1.639,2.318,1.639c3.508,0,5.65-4.106,5.65-8.465c0-4.13-4.127-8.001-10.859-8.001
				c-14.348,0-25.941,23.768-27.498,40.59c-3.016,6.058-8.305,10.671-14.561,14.5c2.379-5.576,4.352-9.559,6.188-14.398
				c1.52-3.425,2.275-5.81,2.275-7.929c0-5.195-7.373-9.176-8.307-9.176c-0.361,0-0.34,0.026-0.34,0.22
				c0,0.193,1.006,0.182,1.006,3.004c-0.154,3.307-2.633,9.602-4.658,14.244c-3.195,5.49-8.707,13.255-15.613,16.147
				c-0.162-0.326-0.072-0.778-0.072-0.978c0-3.403,8.541-17.014,8.541-22.619c0-4.437-5.838-9.617-9.604-9.617
				c-0.76,0,1.496,0.378,1.496,4.547c0,2.139-0.588,4.537-1.436,7.004c-0.025,0.015-0.051,0.029-0.059,0.035
				c-4.561,11.312-13.082,22.918-16.342,22.918c-1.342,0-1.342-2.097-1.342-2.097c0-15.522,11.83-28.972,11.83-41.363
				c0-7.719-6.545-14.095-11.242-14.095c0,0-0.756-0.046-0.756,0.419c0,0.677,2.35,1.595,2.35,5.706
				c0,3.696-1.703,8.596-3.824,14.02c-3.189,6.92-19.672,37.433-24.74,37.433c-1.344,0-1.344-2.098-1.344-2.098
				c0-15.521,11.83-28.971,11.83-41.362c0-7.719-6.543-14.096-11.242-14.096c0,0-0.756-0.046-0.756,0.42
				c0,0.676,2.352,1.594,2.352,5.705c0,3.383-1.428,7.773-3.295,12.651c-0.004,0.003-0.006,0.005-0.008,0.008
				c0,0.006-0.008,0.028-0.01,0.036c-0.127,0.331-0.256,0.665-0.387,1c-2.773,6.198-19.73,37.757-24.887,37.757
				c-1.344,0-1.344-2.096-1.344-2.096c0-15.523,11.83-29.925,11.83-41.364c0-7.316-5.605-14.086-12.559-14.086
				c-10.209,0-24.857,10.127-24.857,20.614c0,4.028,2.352,9.312,4.029,9.312c0.279,0,0.939-0.27,0.939-1.13
				c0-4.598,11.057-25.047,19.783-25.047c2.76,0,2.996,1.849,3.012,2.434c-0.053,9.831-11.992,28.069-11.992,42.133
				c0,8.979,7.131,12.921,10.906,12.921c4.152,0,12.17-11.734,18.26-22.467c-0.867,3.284-1.42,6.501-1.42,9.524
				c0,8.977,7.131,12.92,10.906,12.92c4.145,0,12.139-11.686,18.223-22.401c-0.857,3.262-1.404,6.455-1.404,9.458
				c0,8.979,7.131,12.921,10.906,12.921c2.422,0,6.156-3.989,10.055-9.438c-0.037,0.302-0.072,0.602-0.072,0.875
				c0,4.574,6.219,8.438,9.074,8.541c0.775,0,4.43-3.465,8.203-7.494l-3.082,7.064c-15.51,6.928-31.518,12.122-33.271,23.034
				c-0.09,0.407-0.162,0.823-0.162,1.25c0,0.108,0.016,0.216,0.018,0.323c-0.004,0.146-0.018,0.291-0.018,0.439
				c0,1.305,0.209,2.19,0.547,2.77c1.744,5.641,7.623,9.949,15.82,9.949c12.58,0,21.457-24.254,21.457-24.254
				s2.098-4.803,4.867-11.307c0.012-0.132,0.002-0.256,0.049-0.4c0.223-0.654,0.486-1.291,0.768-1.92
				c7.381-3.928,13.963-8.457,17.605-14.419c1.373,9.46,7.477,14.798,12.922,14.798c5.227,0,11.734-6.104,16.508-11.99
				c-0.402,1.27-0.656,2.417-0.656,3.371c0,4.623,6.287,8.529,9.172,8.634c0.861,0,5.223-4.214,9.406-8.776l-4.146,9.502
				c-16.871,6.651-34.047,11.672-34.047,25.127c0,0.428,0.021,0.811,0.064,1.156c0.652,6.844,7.057,12.473,16.48,12.473
				c12.715,0,21.689-24.518,21.689-24.518s2.119-4.855,4.918-11.43c0.012-0.133,0.002-0.258,0.051-0.404
				c0.43-1.268,1.008-2.471,1.59-3.672c0.344-0.174,0.689-0.346,1.029-0.521c6.461-3.326,10.412-6.285,13.309-10.436
				c0.674,10.146,5.662,11.947,10.186,11.947c7.273,0,13.42-13.865,20.396-28.02c2.342-0.555,5.189-0.991,8.637-1.192
				c-1.82,5.141-3.01,10.202-3.01,14.582c0,8.896,3.242,15.416,8.645,15.416c0.037,0,0.084-0.008,0.127-0.014
				c0.086,0.004,0.164,0.014,0.252,0.014c1.834,0,4.492-2.93,6.994-6.857c-5.471,13.525-11.451,27.467-11.451,31.719
				c0,4.209,2.795,7.723,5.613,9.885c1.176,0.899,1.791,0.703,1.367-0.715c-0.48-1.605-0.117-0.748-0.117-3.305
				c0-6.553,7.336-23.169,13.268-37.161c1.164,2.286,3.799,5.597,9.346,5.597c11.535,0,18.805-19.67,18.805-25.918
				C372.227,91.552,368.161,88.359,363.514,88.359 M181.217,138.086c0,0-7.234,17.528-17.221,17.528
				c-2.834,0-4.09-2.228-4.107-4.403c0-0.074,0.008-0.145,0.01-0.217c0.01-0.166,0.027-0.33,0.037-0.496
				c-0.006-0.005-0.01-0.01-0.016-0.014c0.656-8.826,12.098-14.266,24.646-20.074L181.217,138.086z M251.786,139.817
				c0,0-7.422,17.719-17.408,17.719c-2.883,0-4.154-2.282-4.154-4.498c0-0.231,0.037-0.448,0.051-0.674
				c-0.006-0.005-0.012-0.011-0.018-0.017c0.516-10.25,12.398-16.127,25.76-22.228L251.786,139.817z M315.877,92.828
				c6.064-11.914,12.863-23.061,21.588-25.21c-3.869,5.218-9.707,14.825-13.699,24.66C320.784,92.344,318.167,92.54,315.877,92.828
				 M349.096,120.08c-2.355,0-3.301-2.214-3.678-3.814c1.053-2.508,2.035-4.896,2.887-7.074
				c4.256-7.262,11.232-18.269,14.408-18.269c1.762,0,1.943,3.626,1.943,5.068C364.657,104.962,355.106,120.08,349.096,120.08"/>
		</g>
	</g>
	<g>
		<g>
			<path fill="#FFFFFF" d="M417.575,133.295c-1.673,0-3.264-0.298-4.746-0.887c-1.416-0.424-2.695-1.19-3.717-2.245
				c-0.147-0.147-0.322-0.339-0.499-0.539c-1.171-1.167-1.993-2.399-2.708-3.565l-0.4-0.655c-0.243,1.731-0.959,3.366-2.099,4.699
				c-1.726,2.019-4.265,3.176-6.966,3.176c-2.644,0-5.261-1.127-7.181-3.093c-1.312-1.347-2.418-2.727-3.315-4.139
				c-0.307,1.516-0.979,2.923-1.979,4.093c-1.706,1.995-4.214,3.14-6.881,3.14c-2.641,0-5.267-1.141-7.205-3.128
				c-4.66-4.78-6.711-9.997-6.095-15.505c0.535-4.776,2.212-9.079,3.834-13.24c0.264-0.676,0.524-1.345,0.776-2.005
				c-1.898-1.518-3.199-3.96-3.199-7.43c0-5.566,4.827-11.547,12.072-11.876l0.125-0.016l0.722,0l0.221,0.012
				c0.276,0.015,0.593,0.042,0.972,0.101c3.103,0.479,6.811,2.026,9.734,4.771c4.579-3.865,7.273-3.866,8.596-3.866
				c1.598,0,6.808,0.316,10.976,4.123c4.797-4.123,7.643-4.123,8.896-4.123c10.327,0,15.73,7.837,15.73,15.578
				c0,1.746-0.371,3.555-0.984,5.451c3.117,1.927,5.107,5.844,5.107,10.687C437.362,123.149,427.561,133.295,417.575,133.295z
				 M379.309,91.885l1.885,0.021c-0.003-0.081-0.008-0.161-0.015-0.242L379.309,91.885z M378.552,91.877l-0.537-1.786
				L378.552,91.877z M376.754,85.899l0.837,2.785L376.754,85.899z"/>
		</g>
		<g>
			<path fill="#FFFFFF" d="M382.008,94.954C382.008,94.954,382.008,94.954,382.008,94.954c-3.438,0-7.515-2.328-8.346-7.438
				c-0.46-2.822,0.146-7.221,3.226-11.093c2.313-2.91,6.842-6.496,15.272-7.051c0.584-0.038,1.195-0.057,1.833-0.057
				c3.266,0,6.852,0.484,10.648,0.997c0.884,0.119,1.773,0.239,2.66,0.353c3.885,0.389,7.665,0.735,11.217,0.735
				c1.073,0,2.106-0.032,3.068-0.095c0.119-0.008,0.138-0.009,0.651-0.324c0.925-0.568,2.646-1.625,5.125-1.625
				c3.438,0,7.515,2.328,8.346,7.439c0.45,2.762-0.129,7.051-3.104,10.794c-2.287,2.875-6.804,6.422-15.339,6.984
				c-3.58,0.235-8.287-0.05-15.191-0.927c-4.035-0.403-7.67-0.735-11.219-0.735c-1.074,0-2.106,0.032-3.07,0.096
				c-0.121,0.008-0.14,0.009-0.653,0.324C386.208,93.897,384.487,94.954,382.008,94.954z"/>
		</g>
		<g>
			<path fill="#FFFFFF" d="M352.239,61.125c2.389,2.312,3.5,5.683,3.5,8.822c0,2.98-1.291,4.997-4.742,10.385
				c-0.288,0.45-0.594,0.927-0.914,1.43c1.34,0.754,2.647,1.729,3.841,2.915c3.397-3.015,6.424-4.317,9.591-4.317
				c8.05,0,16.713,5.874,16.713,18.769c0,9.844-9.393,33.918-26.805,33.918c-2.132,0-4.156-0.314-6.034-0.92
				c-3.952,9.402-8.579,20.924-8.579,24.484c0,0.665-0.019,1.197-0.048,1.646c0.897,3.739-0.457,6.324-1.382,7.566
				c-1.588,2.131-4.032,3.353-6.707,3.353c-2.063,0-4.073-0.736-5.974-2.19c-5.565-4.271-8.753-10.187-8.753-16.239
				c0-3.622,1.636-8.76,5.476-18.5c-4.299-2.267-7.907-6.933-9.358-14.292c-5.168,8.905-10.762,15.146-18.707,15.146
				c-3.259,0-9.345-0.78-13.591-5.979c-1.419,0.924-2.975,1.839-4.692,2.765l-0.023,0.268l-0.497,1.167
				c-2.469,5.801-4.413,10.271-4.853,11.281c-2.031,5.469-11.952,29.532-29.115,29.532c-13.035,0-23.292-8.239-24.434-19.606
				c-0.075-0.643-0.111-1.306-0.111-2.022c0-7.88,3.631-13.615,9.072-18.094c-4.634-0.775-9.34-3.53-12.85-8.172
				c-2.433,1.885-5.241,3.726-8.484,5.572c-2.421,5.685-4.324,10.06-4.76,11.06c-2.016,5.427-11.849,29.269-28.883,29.269
				c-5.477,0-10.568-1.443-14.723-4.174c-4.003-2.63-7.002-6.414-8.51-10.716c-0.762-1.67-1.134-3.588-1.134-5.829
				c0-0.133,0.003-0.266,0.008-0.396c-0.005-0.123-0.008-0.244-0.008-0.366c0-1.113,0.16-2.07,0.301-2.747
				c1.071-6.229,4.77-10.935,9.841-14.797c-2.838-1.339-5.576-3.454-7.699-6.313c-4.727,5.613-8.677,8.048-12.913,8.048
				c-4.874,0-10.902-2.749-14.822-8.039c-4.731,5.622-8.686,8.062-12.924,8.062c-7.926,0-18.906-7.271-18.906-20.921
				c0-4.09,0.771-8.297,1.93-12.469c-1.544,1.298-3.521,2.079-5.672,2.079c-8.501,0-12.029-11.276-12.029-17.312
				c0-7.282,4.26-14.774,11.688-20.554c6.486-5.047,14.4-8.061,21.17-8.061c11.144,0,20.559,10.114,20.559,22.086
				c0,0.009,0,0.019,0,0.027c0.871-2.374,2.035-5.841,2.097-7.856c-0.802-0.904-2.349-2.867-2.349-5.869
				c0-4.722,3.822-8.421,8.701-8.421l0.31,0.003c9.787,0.182,18.97,10.814,18.987,22.063c0.967-2.652,2.017-5.897,2.076-7.8
				c-0.801-0.903-2.347-2.866-2.347-5.868c0-4.722,3.822-8.421,8.701-8.421l0.31,0.004c9.796,0.183,18.987,10.833,18.987,22.093
				c0,0.375-0.008,0.75-0.023,1.124c3.978,0.63,7.653,2.961,10.424,6.002c0.396-2.059,1.492-3.452,2.203-4.168
				c1.09-1.097,3.015-2.405,5.988-2.405c2.932,0,7.441,2.158,10.976,5.675c5.865-15.169,16.823-29.262,30.927-29.262
				c10.751,0,18.859,6.879,18.859,16.001c0,3.769-0.946,7.167-2.583,9.883c1.65,0.977,3.186,2.229,4.52,3.669
				c0.491-1.61,1.387-2.726,1.998-3.341c1.091-1.098,3.016-2.406,5.991-2.406c4.297,0,12.494,5.693,15.417,12.979
				c0.926-0.401,1.817-0.637,2.647-0.759l0.536-0.768l0.046,0.699c0.31-0.027,0.608-0.04,0.896-0.04
				c1.467,0,3.866,0.385,6.225,1.235c2.001-1.97,5.15-3.893,10.076-5.312c8.378-14.97,18.721-29.4,32.452-30.769l0.251-0.108
				l2.117-0.005l0.045,0.005c0.45,0.015,0.836,0.064,1.15,0.118c1.429,0.196,2.888,0.534,4.141,1.298
				C348.457,57.882,351.049,59.974,352.239,61.125z"/>
		</g>
	</g>
</g>
<g>
	<g>
		<path fill="#62A9DA" d="M427.629,108.828c-0.324,0-0.508,0.138-0.508,0.415c0,2.949-5.062,13.536-8.68,13.539
			c-1.033-0.281-1.623-1.542-1.623-2.857c0-5.955,8.42-18.167,8.42-23.25c0-6.167-5.08-7.578-7.73-7.578
			c-2.305,0-8.195,6.232-13.258,13.615c0.559-1.645,0.971-3.191,1.115-4.5c0.855-7.636-5.078-9.115-7.729-9.115
			c-2.17,0-7.516,5.522-12.359,12.326c0.352-1.172,0.605-2.271,0.713-3.241c0.855-7.636-5.977-9.786-7.912-10.085
			c-0.072-0.011-0.133-0.015-0.186-0.016v-0.002c-0.004,0-0.008,0.001-0.012,0.001c-0.01,0-0.016,0.001-0.023,0.001
			c-3.174,0.02-4.662,2.663-4.662,3.89c0,1.232,0.135,1.365,1.002,1.365c0.596,0,0.477-3.635,3.236-3.635
			c0.52,0,0.932,0.446,1.146,2.27c0,0,0.01-0.003,0.01-0.004c-0.004,0.174-0.016,0.353-0.035,0.539
			c-0.889,7.953-5.973,15.464-6.82,23.03c-0.404,3.614,1.434,6.528,3.873,9.03c1.141,1.17,2.758,0.881,2.504-0.733
			c-0.166-1.043-0.189-2.045-0.113-3.271c2.104-10.424,15.27-28.152,18.568-28.152c0.857,0,1.197,0.325,1.248,0.934
			c-1.125,7.653-5.887,14.913-6.705,22.222c-0.402,3.613,1.434,6.527,3.873,9.029c1.143,1.17,2.84,0.797,2.586-0.816
			c-0.014-0.088-0.023-0.174-0.037-0.26c0.012-9.739,15.318-31.109,18.908-31.109c0.848,0,1.189,0.321,1.242,0.919
			c-1.174,7.622-6.699,14.369-6.699,22.237c0,2.396,0.631,4.463,1.754,6.313c-0.004,0-0.006-0.001-0.01,0
			c0.508,0.829,1.021,1.606,1.676,2.216c0.15,0.168,0.293,0.338,0.453,0.5c0.123,0.127,0.309,0.18,0.523,0.193
			c0.6,0.312,1.305,0.506,2.195,0.506c5.605,0,11.787-6.722,11.787-12.482C429.362,110.601,428.551,108.828,427.629,108.828"/>
		<path fill="#62A9DA" d="M387.26,85.022c5.16-0.34,10.463,0.147,15.717,0.673c5.008,0.638,10.176,1.13,13.764,0.894
			c10.359-0.682,11.346-6.834,11.072-8.512c-0.336-2.067-1.49,0.933-5.701,1.21c-5.16,0.339-10.463-0.147-15.715-0.673
			c-5.01-0.638-10.123-1.495-13.711-1.259c-10.359,0.682-11.4,7.199-11.127,8.877C381.895,88.298,383.049,85.299,387.26,85.022"/>
		<path fill="#62A9DA" d="M363.514,88.359c-3.031,0-7.951,5.769-12.211,11.706c0.111-0.58,0.182-1.098,0.182-1.507
			c0-7.684-6.027-10.697-7.986-10.697c-2.41,0,0.754,1.808,0.754,3.917c0,2.975-1.666,8.44-4.041,14.903
			c-2.645,5.613-6.822,12.577-12.42,14.892c-0.713-1.653-0.443-4.135-0.443-5.007c0-19.179,20.391-44.188,20.391-46.619
			c0-2.329-2.975-6.011-6.074-6.318c-0.066-0.014-0.131-0.03-0.205-0.03c-0.045,0-0.088,0.005-0.131,0.005
			c-0.025,0-0.049-0.005-0.072-0.005c-0.008,0-0.021,0.009-0.029,0.009c-11.336,0.203-21.094,15.157-29.027,29.812
			c-8.139,1.63-10.783,4.533-10.783,5.854c0,1.891,1.35,2.837,1.891,2.837c0.303,0,1.758-2.002,6.273-3.757
			c-6.416,12.282-11.486,23.103-15.057,23.103c-1.555,0-3.059-1.269-3.059-5.186c0-10.805,6.346-12.366,6.346-13.329
			c0-3.242-6.008-4.385-7.225-4.385c-1.781,0-3.75,2.385-5.225,5.157c-0.002-0.002-0.002-0.003-0.004-0.004
			c-0.006,0.015-0.012,0.03-0.018,0.045c-0.613,1.158-1.143,2.377-1.531,3.522c-2.533,5.042-6.039,8.568-11.314,11.521
			c-0.57,0.273-1.162,0.539-1.748,0.807c0.062-0.129,0.137-0.247,0.221-0.35c2.406-5.645,4.404-9.673,6.26-14.569
			c1.535-3.462,2.301-5.873,2.301-8.015c0-5.252-7.746-10.226-8.484-10.226c-0.365,0-0.344,0.027-0.344,0.223
			c0,0.195,1.104,0.081,1.104,3.987c-0.096,2.072-1.098,5.308-2.332,8.586c-2.336,4.749-9.137,17.138-17.988,20.396
			c-0.105-0.395-0.072-0.787-0.072-0.988c0-3.439,8.633-17.198,8.633-22.864c0-4.485-5.336-9.513-9.141-9.513
			c-0.766,0,0.947,0.481,0.947,4.388c0,1.796-0.418,3.774-1.045,5.82c-4.479,10.914-15.215,23.353-23.885,23.353
			c-1.152,0-1.863-4.38-1.863-6.69c0-17.001,12.932-43.451,20.377-43.451c1.205,0,2.902,0.412,2.902,2.663
			c0,4.5-3.188,4.248-3.188,5.112c0,1.247,1.123,1.639,2.318,1.639c3.508,0,5.65-4.106,5.65-8.465c0-4.13-4.127-8.001-10.859-8.001
			c-14.348,0-25.941,23.768-27.498,40.59c-3.016,6.058-8.305,10.671-14.561,14.5c2.379-5.576,4.352-9.559,6.188-14.398
			c1.52-3.425,2.275-5.81,2.275-7.929c0-5.195-7.373-9.176-8.307-9.176c-0.361,0-0.34,0.026-0.34,0.22
			c0,0.193,1.006,0.182,1.006,3.004c-0.154,3.307-2.633,9.602-4.658,14.244c-3.195,5.49-8.707,13.255-15.613,16.147
			c-0.162-0.326-0.072-0.778-0.072-0.978c0-3.403,8.541-17.014,8.541-22.619c0-4.437-5.838-9.617-9.604-9.617
			c-0.76,0,1.496,0.378,1.496,4.547c0,2.139-0.588,4.537-1.436,7.004c-0.025,0.015-0.051,0.029-0.059,0.035
			c-4.561,11.312-13.082,22.918-16.342,22.918c-1.342,0-1.342-2.097-1.342-2.097c0-15.522,11.83-28.972,11.83-41.363
			c0-7.719-6.545-14.095-11.242-14.095c0,0-0.756-0.046-0.756,0.419c0,0.677,2.35,1.595,2.35,5.706c0,3.696-1.703,8.596-3.824,14.02
			c-3.189,6.92-19.672,37.433-24.74,37.433c-1.344,0-1.344-2.098-1.344-2.098c0-15.521,11.83-28.971,11.83-41.362
			c0-7.719-6.543-14.096-11.242-14.096c0,0-0.756-0.046-0.756,0.42c0,0.676,2.352,1.594,2.352,5.705
			c0,3.383-1.428,7.773-3.295,12.651c-0.004,0.003-0.006,0.005-0.008,0.008c0,0.006-0.008,0.028-0.01,0.036
			c-0.127,0.331-0.256,0.665-0.387,1c-2.773,6.198-19.73,37.757-24.887,37.757c-1.344,0-1.344-2.096-1.344-2.096
			c0-15.523,11.83-29.925,11.83-41.364c0-7.316-5.605-14.086-12.559-14.086c-10.209,0-24.857,10.127-24.857,20.614
			c0,4.028,2.352,9.312,4.029,9.312c0.279,0,0.939-0.27,0.939-1.13c0-4.598,11.057-25.047,19.783-25.047
			c2.76,0,2.996,1.849,3.012,2.434c-0.053,9.831-11.992,28.069-11.992,42.133c0,8.979,7.131,12.921,10.906,12.921
			c4.152,0,12.17-11.734,18.26-22.467c-0.867,3.284-1.42,6.501-1.42,9.524c0,8.977,7.131,12.92,10.906,12.92
			c4.145,0,12.139-11.686,18.223-22.401c-0.857,3.262-1.404,6.455-1.404,9.458c0,8.979,7.131,12.921,10.906,12.921
			c2.422,0,6.156-3.989,10.055-9.438c-0.037,0.302-0.072,0.602-0.072,0.875c0,4.574,6.219,8.438,9.074,8.541
			c0.775,0,4.43-3.465,8.203-7.494l-3.082,7.064c-15.51,6.928-31.518,12.122-33.271,23.034c-0.09,0.407-0.162,0.823-0.162,1.25
			c0,0.108,0.016,0.216,0.018,0.323c-0.004,0.146-0.018,0.291-0.018,0.439c0,1.305,0.209,2.19,0.547,2.77
			c1.744,5.641,7.623,9.949,15.82,9.949c12.58,0,21.457-24.254,21.457-24.254s2.098-4.803,4.867-11.307
			c0.012-0.132,0.002-0.256,0.049-0.4c0.223-0.654,0.486-1.291,0.768-1.92c7.381-3.928,13.963-8.457,17.605-14.419
			c1.373,9.46,7.477,14.798,12.922,14.798c5.227,0,11.734-6.104,16.508-11.99c-0.402,1.27-0.656,2.417-0.656,3.371
			c0,4.623,6.287,8.529,9.172,8.634c0.861,0,5.223-4.214,9.406-8.776l-4.146,9.502c-16.871,6.651-34.047,11.672-34.047,25.127
			c0,0.428,0.021,0.811,0.064,1.156c0.652,6.844,7.057,12.473,16.48,12.473c12.715,0,21.689-24.518,21.689-24.518
			s2.119-4.855,4.918-11.43c0.012-0.133,0.002-0.258,0.051-0.404c0.43-1.268,1.008-2.471,1.59-3.672
			c0.344-0.174,0.689-0.346,1.029-0.521c6.461-3.326,10.412-6.285,13.309-10.436c0.674,10.146,5.662,11.947,10.186,11.947
			c7.273,0,13.42-13.865,20.396-28.02c2.342-0.555,5.189-0.991,8.637-1.192c-1.82,5.141-3.01,10.202-3.01,14.582
			c0,8.896,3.242,15.416,8.645,15.416c0.037,0,0.084-0.008,0.127-0.014c0.086,0.004,0.164,0.014,0.252,0.014
			c1.834,0,4.492-2.93,6.994-6.857c-5.471,13.525-11.451,27.467-11.451,31.719c0,4.209,2.795,7.723,5.613,9.885
			c1.176,0.899,1.791,0.703,1.367-0.715c-0.48-1.605-0.117-0.748-0.117-3.305c0-6.553,7.336-23.169,13.268-37.161
			c1.164,2.286,3.799,5.597,9.346,5.597c11.535,0,18.805-19.67,18.805-25.918C372.227,91.552,368.161,88.359,363.514,88.359
			 M181.217,138.086c0,0-7.234,17.528-17.221,17.528c-2.834,0-4.09-2.228-4.107-4.403c0-0.074,0.008-0.145,0.01-0.217
			c0.01-0.166,0.027-0.33,0.037-0.496c-0.006-0.005-0.01-0.01-0.016-0.014c0.656-8.826,12.098-14.266,24.646-20.074L181.217,138.086
			z M251.786,139.817c0,0-7.422,17.719-17.408,17.719c-2.883,0-4.154-2.282-4.154-4.498c0-0.231,0.037-0.448,0.051-0.674
			c-0.006-0.005-0.012-0.011-0.018-0.017c0.516-10.25,12.398-16.127,25.76-22.228L251.786,139.817z M315.877,92.828
			c6.064-11.914,12.863-23.061,21.588-25.21c-3.869,5.218-9.707,14.825-13.699,24.66C320.784,92.344,318.167,92.54,315.877,92.828
			 M349.096,120.08c-2.355,0-3.301-2.214-3.678-3.814c1.053-2.508,2.035-4.896,2.887-7.074c4.256-7.262,11.232-18.269,14.408-18.269
			c1.762,0,1.943,3.626,1.943,5.068C364.657,104.962,355.106,120.08,349.096,120.08"/>
	</g>
</g>
</svg>
